<svg xmlns="http://www.w3.org/2000/svg" viewBox="0 0 1600 900" role="img" aria-label="What this repository builds">
<rect width="1600" height="900" fill="#F4EADB"/>
<text x="60" y="62" font-family="Fraunces, Georgia, serif" font-size="34" fill="#2A1C15" font-weight="500" text-anchor="start" font-style="normal">What this repository builds</text>
<text x="60" y="92" font-family="'JetBrains Mono', Menlo, monospace" font-size="15" fill="#7A6656" font-weight="400" text-anchor="start" font-style="normal" letter-spacing="0.4">SIMULATED SOURCES · DBT · DUCKDB · KTX · CLAUDE CODE · CHECKS</text>
<g transform="translate(1540,58)"><rect x="-292" y="-22" width="292" height="34" rx="17" fill="none" stroke="#A9462B" stroke-width="1.6"/>
<text x="-146" y="0" font-family="'JetBrains Mono', Menlo, monospace" font-size="13" fill="#A9462B" font-weight="500" text-anchor="middle" font-style="normal" letter-spacing="1">KELDER KOFFIE DEMO</text></g>
<text x="50" y="168" font-family="'JetBrains Mono', Menlo, monospace" font-size="12" fill="#7A6656" font-weight="600" text-anchor="start" font-style="normal" letter-spacing="1">SOURCES (SIMULATED)</text><rect x="50" y="182" width="180" height="54" rx="10" fill="#FAF4E9" stroke="#2A1C15" stroke-width="2"/><text x="64" y="206" font-family="Fraunces, Georgia, serif" font-size="16" fill="#2A1C15" font-weight="600" text-anchor="start" font-style="normal">Shopify</text><text x="64" y="225" font-family="'JetBrains Mono', Menlo, monospace" font-size="11.5" fill="#7A6656" font-weight="400" text-anchor="start" font-style="normal">orders</text><rect x="50" y="248" width="180" height="54" rx="10" fill="#FAF4E9" stroke="#2A1C15" stroke-width="2"/><text x="64" y="272" font-family="Fraunces, Georgia, serif" font-size="16" fill="#2A1C15" font-weight="600" text-anchor="start" font-style="normal">Recharge</text><text x="64" y="291" font-family="'JetBrains Mono', Menlo, monospace" font-size="11.5" fill="#7A6656" font-weight="400" text-anchor="start" font-style="normal">subscriptions</text><rect x="50" y="314" width="180" height="54" rx="10" fill="#FAF4E9" stroke="#2A1C15" stroke-width="2"/><text x="64" y="338" font-family="Fraunces, Georgia, serif" font-size="16" fill="#2A1C15" font-weight="600" text-anchor="start" font-style="normal">Klaviyo</text><text x="64" y="357" font-family="'JetBrains Mono', Menlo, monospace" font-size="11.5" fill="#7A6656" font-weight="400" text-anchor="start" font-style="normal">email</text><rect x="50" y="380" width="180" height="54" rx="10" fill="#FAF4E9" stroke="#2A1C15" stroke-width="2"/><text x="64" y="404" font-family="Fraunces, Georgia, serif" font-size="16" fill="#2A1C15" font-weight="600" text-anchor="start" font-style="normal">Ad platforms</text><text x="64" y="423" font-family="'JetBrains Mono', Menlo, monospace" font-size="11.5" fill="#7A6656" font-weight="400" text-anchor="start" font-style="normal">spend</text><path d="M230 310 L280 310" fill="none" stroke="#2A1C15" stroke-width="2.6" stroke-linejoin="round"/><path d="M280 310L265.0 317.0L265.0 303.0Z" fill="#2A1C15"/><rect x="280" y="150" width="620" height="320" rx="14" fill="#FAF4E9" stroke="#2F5B55" stroke-width="2.6"/><path d="M280 164a14 14 0 0 1 14 -14h592a14 14 0 0 1 14 14v30h-620z" fill="#2F5B55"/><text x="298" y="180" font-family="Fraunces, Georgia, serif" font-size="21" fill="#F4EADB" font-weight="600" text-anchor="start" font-style="normal">Warehouse</text><text x="884" y="180" font-family="'JetBrains Mono', Menlo, monospace" font-size="12.5" fill="#D9A441" font-weight="500" text-anchor="end" font-style="normal">built and tested by dbt</text><rect x="296" y="212" width="138" height="64" rx="9" fill="#F4EADB" stroke="#2A1C15" stroke-width="2"/><text x="365.0" y="241.0" font-family="'JetBrains Mono', Menlo, monospace" font-size="13.5" fill="#2A1C15" font-weight="600" text-anchor="middle" font-style="normal">raw</text><text x="365.0" y="261.0" font-family="'JetBrains Mono', Menlo, monospace" font-size="12" fill="#7A6656" font-weight="400" text-anchor="middle" font-style="normal">as loaded</text><rect x="446" y="212" width="138" height="64" rx="9" fill="#F4EADB" stroke="#2A1C15" stroke-width="2"/><text x="515.0" y="241.0" font-family="'JetBrains Mono', Menlo, monospace" font-size="13.5" fill="#2A1C15" font-weight="600" text-anchor="middle" font-style="normal">staging</text><text x="515.0" y="261.0" font-family="'JetBrains Mono', Menlo, monospace" font-size="12" fill="#7A6656" font-weight="400" text-anchor="middle" font-style="normal">cleaned</text><path d="M434 244 L446 244" fill="none" stroke="#2A1C15" stroke-width="2" stroke-linejoin="round"/><path d="M446 244L431.0 251.0L431.0 237.0Z" fill="#2A1C15"/><rect x="596" y="212" width="138" height="64" rx="9" fill="#F4EADB" stroke="#2A1C15" stroke-width="2"/><text x="665.0" y="241.0" font-family="'JetBrains Mono', Menlo, monospace" font-size="13.5" fill="#2A1C15" font-weight="600" text-anchor="middle" font-style="normal">intermediate</text><text x="665.0" y="261.0" font-family="'JetBrains Mono', Menlo, monospace" font-size="12" fill="#7A6656" font-weight="400" text-anchor="middle" font-style="normal">joined</text><path d="M584 244 L596 244" fill="none" stroke="#2A1C15" stroke-width="2" stroke-linejoin="round"/><path d="M596 244L581.0 251.0L581.0 237.0Z" fill="#2A1C15"/><rect x="746" y="212" width="138" height="64" rx="9" fill="#F4EADB" stroke="#2A1C15" stroke-width="2"/><text x="815.0" y="241.0" font-family="'JetBrains Mono', Menlo, monospace" font-size="13.5" fill="#2A1C15" font-weight="600" text-anchor="middle" font-style="normal">marts</text><text x="815.0" y="261.0" font-family="'JetBrains Mono', Menlo, monospace" font-size="12" fill="#7A6656" font-weight="400" text-anchor="middle" font-style="normal">fct, metrics</text><path d="M734 244 L746 244" fill="none" stroke="#2A1C15" stroke-width="2" stroke-linejoin="round"/><path d="M746 244L731.0 251.0L731.0 237.0Z" fill="#2A1C15"/><rect x="296" y="296" width="588" height="54" rx="9" fill="#F4EADB" stroke="#2A1C15" stroke-width="2"/><text x="312" y="319" font-family="'JetBrains Mono', Menlo, monospace" font-size="15" fill="#2A1C15" font-weight="600" text-anchor="start" font-style="normal">context schema</text><text x="312" y="339" font-family="'JetBrains Mono', Menlo, monospace" font-size="12" fill="#7A6656" font-weight="400" text-anchor="start" font-style="normal">business_events · metric_changelog</text><text x="296" y="384" font-family="'Instrument Sans', 'Helvetica Neue', Arial, sans-serif" font-size="13.5" fill="#2A1C15" font-weight="400" text-anchor="start" font-style="normal">Three states, each its own warehouse file:</text><text x="296" y="403" font-family="'Instrument Sans', 'Helvetica Neue', Arial, sans-serif" font-size="13.5" fill="#2A1C15" font-weight="400" text-anchor="start" font-style="normal">before-context, with-context and rot.</text><text x="296" y="448" font-family="'JetBrains Mono', Menlo, monospace" font-size="12" fill="#7A6656" font-weight="400" text-anchor="start" font-style="normal">DuckDB in the demo; Snowflake or BigQuery in real life</text><rect x="960" y="150" width="270" height="280" rx="14" fill="#FAF4E9" stroke="#2A1C15" stroke-width="2.6"/><path d="M960 164a14 14 0 0 1 14 -14h242a14 14 0 0 1 14 14v30h-270z" fill="#2A1C15"/><text x="978" y="180" font-family="Fraunces, Georgia, serif" font-size="21" fill="#F4EADB" font-weight="600" text-anchor="start" font-style="normal">ktx</text><rect x="976" y="208" width="238" height="70" rx="9" fill="#F4EADB" stroke="#2F5B55" stroke-width="2"/><text x="1095.0" y="240.0" font-family="'JetBrains Mono', Menlo, monospace" font-size="13.5" fill="#2F5B55" font-weight="600" text-anchor="middle" font-style="normal">SQL gateway</text><text x="1095.0" y="260.0" font-family="'JetBrains Mono', Menlo, monospace" font-size="12" fill="#7A6656" font-weight="400" text-anchor="middle" font-style="normal">the agent&#x27;s queries, read-only</text><rect x="976" y="292" width="238" height="120" rx="9" fill="#F4EADB" stroke="#8A5F12" stroke-width="2"/><text x="1095" y="318" font-family="'JetBrains Mono', Menlo, monospace" font-size="15" fill="#8A5F12" font-weight="600" text-anchor="middle" font-style="normal">wiki + semantic layer</text><text x="992" y="342" font-family="'JetBrains Mono', Menlo, monospace" font-size="12" fill="#7A6656" font-weight="400" text-anchor="start" font-style="normal">semantic layer from the</text><text x="992" y="360" font-family="'JetBrains Mono', Menlo, monospace" font-size="12" fill="#7A6656" font-weight="400" text-anchor="start" font-style="normal">schema, plus a wiki that</text><text x="992" y="378" font-family="'JetBrains Mono', Menlo, monospace" font-size="12" fill="#7A6656" font-weight="400" text-anchor="start" font-style="normal">holds the written notes</text><path d="M900 243 L976 243" fill="none" stroke="#2F5B55" stroke-width="2.6" stroke-linejoin="round"/><path d="M976 243L961.0 250.0L961.0 236.0Z" fill="#2F5B55"/><rect x="916.45" y="209" width="43.1" height="25" rx="12.5" fill="#F4EADB" stroke="#2F5B55" stroke-width="1.3"/><text x="938.0" y="226" font-family="'JetBrains Mono', Menlo, monospace" font-size="12.5" fill="#2F5B55" font-weight="600" text-anchor="middle" font-style="normal">SQL</text><rect x="1290" y="150" width="260" height="190" rx="14" fill="#FAF4E9" stroke="#A9462B" stroke-width="2.6"/><path d="M1290 164a14 14 0 0 1 14 -14h232a14 14 0 0 1 14 14v30h-260z" fill="#A9462B"/><text x="1308" y="180" font-family="Fraunces, Georgia, serif" font-size="21" fill="#F4EADB" font-weight="600" text-anchor="start" font-style="normal">Agent</text><text x="1308" y="222" font-family="'Instrument Sans', 'Helvetica Neue', Arial, sans-serif" font-size="15" fill="#2A1C15" font-weight="400" text-anchor="start" font-style="normal">Claude Code, pinned model.</text><text x="1308" y="244" font-family="'Instrument Sans', 'Helvetica Neue', Arial, sans-serif" font-size="15" fill="#2A1C15" font-weight="400" text-anchor="start" font-style="normal">Tools: Read, Grep, Glob</text><text x="1308" y="266" font-family="'Instrument Sans', 'Helvetica Neue', Arial, sans-serif" font-size="15" fill="#2A1C15" font-weight="400" text-anchor="start" font-style="normal">and the ktx tools only.</text><path d="M1230 243 L1290 243" fill="none" stroke="#A9462B" stroke-width="2.6" stroke-linejoin="round"/><path d="M1290 243L1275.0 250.0L1275.0 236.0Z" fill="#A9462B"/><rect x="1238.45" y="209" width="43.1" height="25" rx="12.5" fill="#F4EADB" stroke="#A9462B" stroke-width="1.3"/><text x="1260.0" y="226" font-family="'JetBrains Mono', Menlo, monospace" font-size="12.5" fill="#A9462B" font-weight="600" text-anchor="middle" font-style="normal">MCP</text><rect x="280" y="540" width="620" height="170" rx="14" fill="#FAF4E9" stroke="#2A1C15" stroke-width="2.6"/><path d="M280 554a14 14 0 0 1 14 -14h592a14 14 0 0 1 14 14v30h-620z" fill="#2A1C15"/><text x="298" y="570" font-family="Fraunces, Georgia, serif" font-size="21" fill="#F4EADB" font-weight="600" text-anchor="start" font-style="normal">The team&#x27;s git repo</text><text x="298" y="614" font-family="'JetBrains Mono', Menlo, monospace" font-size="15" fill="#2A1C15" font-weight="600" text-anchor="start" font-style="normal">dbt models and tests</text><text x="298" y="638" font-family="'Instrument Sans', 'Helvetica Neue', Arial, sans-serif" font-size="13.5" fill="#2A1C15" font-weight="400" text-anchor="start" font-style="normal">staging, intermediate, marts,</text><text x="298" y="658" font-family="'Instrument Sans', 'Helvetica Neue', Arial, sans-serif" font-size="13.5" fill="#2A1C15" font-weight="400" text-anchor="start" font-style="normal">column descriptions, tests</text><path d="M440 540 L440 470" fill="none" stroke="#2A1C15" stroke-width="2.6" stroke-linejoin="round"/><path d="M440 470L447.0 485.0L433.0 485.0Z" fill="#2A1C15"/><rect x="395.35" y="492" width="89.3" height="25" rx="12.5" fill="#F4EADB" stroke="#2A1C15" stroke-width="1.3"/><text x="440.0" y="509" font-family="'JetBrains Mono', Menlo, monospace" font-size="12.5" fill="#2A1C15" font-weight="600" text-anchor="middle" font-style="normal">dbt build</text><rect x="590" y="596" width="294" height="100" rx="9" fill="#F4EADB" stroke="#8A5F12" stroke-width="2"/><text x="606" y="620" font-family="'JetBrains Mono', Menlo, monospace" font-size="15" fill="#8A5F12" font-weight="600" text-anchor="start" font-style="normal">the written notes</text><text x="606" y="644" font-family="'Instrument Sans', 'Helvetica Neue', Arial, sans-serif" font-size="13.5" fill="#2A1C15" font-weight="400" text-anchor="start" font-style="normal">AGENTS.md, decision records,</text><text x="606" y="664" font-family="'Instrument Sans', 'Helvetica Neue', Arial, sans-serif" font-size="13.5" fill="#2A1C15" font-weight="400" text-anchor="start" font-style="normal">glossary, quirks, verified queries</text><path d="M884 626 L1095 626 L1095 430" fill="none" stroke="#8A5F12" stroke-width="2.6" stroke-linejoin="round"/><path d="M1095 430L1102.0 445.0L1088.0 445.0Z" fill="#8A5F12"/><rect x="957.95" y="547" width="274.1" height="25" rx="12.5" fill="#F4EADB" stroke="#8A5F12" stroke-width="1.3"/><text x="1095.0" y="564" font-family="'JetBrains Mono', Menlo, monospace" font-size="12.5" fill="#8A5F12" font-weight="600" text-anchor="middle" font-style="normal">route 2: copied into the ktx wiki</text><path d="M884 676 L1260 676 L1260 310 L1290 310" fill="none" stroke="#8A5F12" stroke-width="2.6" stroke-linejoin="round"/><path d="M1290 310L1275.0 317.0L1275.0 303.0Z" fill="#8A5F12"/><rect x="1262" y="663" width="266.4" height="25" rx="12.5" fill="#F4EADB" stroke="#8A5F12" stroke-width="1.3"/><text x="1395.2" y="680" font-family="'JetBrains Mono', Menlo, monospace" font-size="12.5" fill="#8A5F12" font-weight="600" text-anchor="middle" font-style="normal">route 1: AGENTS.md read at start</text><rect x="50" y="540" width="190" height="170" rx="14" fill="#FAF4E9" stroke="#A9462B" stroke-width="2.6"/><path d="M50 554a14 14 0 0 1 14 -14h162a14 14 0 0 1 14 14v30h-190z" fill="#A9462B"/><text x="68" y="570" font-family="Fraunces, Georgia, serif" font-size="21" fill="#F4EADB" font-weight="600" text-anchor="start" font-style="normal">Checks</text><text x="66" y="612" font-family="'Instrument Sans', 'Helvetica Neue', Arial, sans-serif" font-size="13.5" fill="#2A1C15" font-weight="400" text-anchor="start" font-style="normal">verified queries</text><text x="66" y="631" font-family="'Instrument Sans', 'Helvetica Neue', Arial, sans-serif" font-size="13.5" fill="#2A1C15" font-weight="400" text-anchor="start" font-style="normal">against pinned</text><text x="66" y="650" font-family="'Instrument Sans', 'Helvetica Neue', Arial, sans-serif" font-size="13.5" fill="#2A1C15" font-weight="400" text-anchor="start" font-style="normal">answers; one impact</text><text x="66" y="669" font-family="'Instrument Sans', 'Helvetica Neue', Arial, sans-serif" font-size="13.5" fill="#2A1C15" font-weight="400" text-anchor="start" font-style="normal">question per PR</text><path d="M280 625 L240 625" fill="none" stroke="#A9462B" stroke-width="2.6" stroke-linejoin="round"/><path d="M240 625L255.0 618.0L255.0 632.0Z" fill="#A9462B"/><text x="50" y="748" font-family="'JetBrains Mono', Menlo, monospace" font-size="12" fill="#7A6656" font-weight="600" text-anchor="start" font-style="normal" letter-spacing="1">FOUR AGENT WORKSPACES, SAME WAREHOUSE TOOLING</text><rect x="50" y="762" width="360" height="62" rx="10" fill="#FAF4E9" stroke="#2A1C15" stroke-width="1.6"/><text x="66" y="789" font-family="'JetBrains Mono', Menlo, monospace" font-size="17" fill="#2A1C15" font-weight="700" text-anchor="start" font-style="normal">installed</text><text x="66" y="811" font-family="'JetBrains Mono', Menlo, monospace" font-size="12.5" fill="#7A6656" font-weight="400" text-anchor="start" font-style="normal">before-context state, no notes</text><rect x="428" y="762" width="360" height="62" rx="10" fill="#FAF4E9" stroke="#2A1C15" stroke-width="1.6"/><text x="444" y="789" font-family="'JetBrains Mono', Menlo, monospace" font-size="17" fill="#2A1C15" font-weight="700" text-anchor="start" font-style="normal">written</text><text x="444" y="811" font-family="'JetBrains Mono', Menlo, monospace" font-size="12.5" fill="#7A6656" font-weight="400" text-anchor="start" font-style="normal">notes by route 1</text><rect x="806" y="762" width="360" height="62" rx="10" fill="#FAF4E9" stroke="#2A1C15" stroke-width="1.6"/><text x="822" y="789" font-family="'JetBrains Mono', Menlo, monospace" font-size="17" fill="#2A1C15" font-weight="700" text-anchor="start" font-style="normal">wiki</text><text x="822" y="811" font-family="'JetBrains Mono', Menlo, monospace" font-size="12.5" fill="#7A6656" font-weight="400" text-anchor="start" font-style="normal">notes by route 2 only</text><rect x="1184" y="762" width="360" height="62" rx="10" fill="#FAF4E9" stroke="#2A1C15" stroke-width="1.6"/><text x="1200" y="789" font-family="'JetBrains Mono', Menlo, monospace" font-size="17" fill="#2A1C15" font-weight="700" text-anchor="start" font-style="normal">rot</text><text x="1200" y="811" font-family="'JetBrains Mono', Menlo, monospace" font-size="12.5" fill="#7A6656" font-weight="400" text-anchor="start" font-style="normal">route 1, plus one bad commit</text>
<text x="60" y="878" font-family="'JetBrains Mono', Menlo, monospace" font-size="13.5" fill="#7A6656" font-weight="400" text-anchor="start" font-style="normal">Each workspace is a folder the agent is locked into. The hidden ground truth never reaches one.</text>
</svg>
